<svg width="160" height="50" viewBox="0 0 160 50" fill="none" xmlns="http://www.w3.org/2000/svg">
<path d="M87.664 0.242685C81.7609 0.683222 78.5009 1.52024 73.4347 3.85508C68.721 6.05776 58.7649 11.6526 50.7912 16.6306C49.6899 17.2914 49.0731 17.3355 45.4167 16.939C33.5222 15.7055 21.0991 17.2033 11.3192 21.1241C4.44686 23.8554 -1.05983 27.2475 0.173665 27.9964C1.36311 28.7894 2.68472 28.3929 3.83011 26.8951C5.98874 24.0316 12.4206 21.4325 21.4515 19.7144C27.3107 18.613 41.2316 18.7452 52.5093 20.0227C66.3862 21.5646 84.8006 21.4765 100.307 19.8465C113.832 18.4368 116.607 18.0844 124.889 16.7187C130.881 15.7055 132.643 15.6174 145.022 15.6174C158.59 15.6174 158.634 15.6174 159.295 14.6482C159.692 14.1196 160 13.5028 160 13.3266C160 13.1063 158.062 12.9742 155.639 12.9742C150.705 12.9742 147.357 12.4455 144.802 11.2561C143.832 10.8155 140.176 9.44988 136.652 8.21638C118.457 1.78456 101.981 -0.858654 87.664 0.242685ZM108.061 3.89913C113.656 4.82426 117.488 5.70533 122.554 7.29126C128.061 9.00935 128.193 9.09745 127.4 10.5512C125.947 13.3266 123.832 14.6923 119.559 15.7936C117.092 16.4103 107.708 17.8201 105.99 17.8201C105.506 17.8201 105.374 16.8509 105.33 12.6217C105.241 7.07099 105.065 7.33531 104.581 13.8552L104.272 18.0403L100.528 18.3928C98.4572 18.613 90.5716 18.7892 83.0384 18.8333L69.2497 18.9214L67.8399 17.4676C66.5624 16.2341 66.4743 15.9258 66.9589 15.1768C67.2232 14.6923 67.4875 13.8112 67.4875 13.2385C67.4875 12.2253 67.3554 12.1812 65.8575 12.4015C64.9324 12.5336 63.3905 12.9301 62.4214 13.2825C57.4874 15.0887 57.5755 15.0447 57.4433 16.4544C57.3111 17.732 57.179 17.8201 55.6812 17.8201C54.8001 17.8201 53.6106 17.6879 53.0379 17.5557C52.0688 17.2914 52.0688 17.2474 53.4785 16.1901C55.5931 14.6041 70.6153 6.89477 74.2718 5.48506C75.9899 4.82426 78.8093 4.03129 80.4833 3.76697C82.2014 3.50265 84.0517 3.19427 84.6684 3.10617C87.1354 2.66563 104.052 3.23833 108.061 3.89913ZM64.1835 17.2474L65.9456 18.7892L63.6108 18.613C62.3332 18.4809 61.1879 18.3046 61.0557 18.1725C60.6592 17.776 61.4081 15.6174 61.9368 15.6174C62.2011 15.6614 63.2143 16.3663 64.1835 17.2474Z" fill="#056635"/>
<path d="M129.647 18.701C128.37 18.9213 126.475 19.2737 125.462 19.5821C123.215 20.1988 117.797 23.8112 116.872 25.3091L116.211 26.4104L117.268 25.4853C118.81 24.1637 122.334 22.4456 125.418 21.5205C131.365 19.8024 140.969 20.9037 146.784 24.0315L149.207 25.3091L147.665 23.9875C142.863 19.8905 135.815 17.82 129.647 18.701Z" fill="#056635"/>
<path d="M154.053 18.8773C152.643 19.2738 152.247 19.6262 152.159 20.5513C152.027 21.7848 152.599 22.0932 156.784 22.8421C158.15 23.0624 158.194 23.0624 157.93 21.6086C157.798 20.8156 157.93 19.7143 158.194 19.1857C158.679 18.3486 158.591 18.2605 157.269 18.3046C156.476 18.3046 155.022 18.5689 154.053 18.8773Z" fill="black"/>
<path d="M23.4778 21.6086C20.7465 22.1813 16.8698 23.8113 15.5041 25.0007C15.1517 25.3091 14.3587 26.1461 13.742 26.851L12.6406 28.0845L14.1825 27.2034C15.0195 26.7188 16.4292 25.9258 17.2662 25.3972C22.9492 22.0932 34.4912 21.917 41.6279 25.0448C44.9319 26.5426 44.5354 25.4413 41.0552 23.591C36.2974 21.0359 29.5131 20.287 23.4778 21.6086Z" fill="#056635"/>
<path d="M106.167 29.2299C102.07 30.5515 99.3824 33.459 98.8097 37.0714C98.1049 41.9173 100.087 46.1905 104.052 48.3051C106.299 49.5386 106.695 49.6267 110.131 49.4064C114.184 49.1861 115.065 48.7015 115.065 46.8072C115.065 45.7059 114.933 45.5297 114.317 45.794C110.308 47.5121 106.827 47.1156 104.449 44.7367C102.686 43.0186 101.629 40.023 101.982 38.1287C103.215 32.2255 106.872 30.5515 114.096 32.622C114.933 32.8423 115.065 32.7542 115.065 31.7409C115.065 31.0801 114.669 30.3753 114.096 29.9788C112.863 29.1858 107.797 28.7012 106.167 29.2299Z" fill="black"/>
<path d="M5.50433 30.1111C2.24436 31.6089 1.27518 35.1772 3.52192 37.6883C4.18272 38.4372 6.20918 39.7588 8.01538 40.6399C10.4824 41.8734 11.3635 42.5342 11.5397 43.3712C11.9361 44.9571 11.2313 46.6752 9.95374 47.2919C8.41186 47.9968 5.37217 47.9087 3.87434 47.1157C2.46463 46.3668 2.02409 46.499 2.46463 47.5563C2.81706 48.5254 4.62326 49.0981 7.26647 49.0981C11.2753 49.0981 14.3591 46.7193 14.3591 43.5914C14.3591 41.565 12.9053 40.0231 9.33699 38.4372C5.50433 36.675 4.93163 36.1023 4.93163 34.0759C4.93163 31.6089 6.25324 30.86 9.99779 31.1683C13.3018 31.4327 13.9626 30.6397 11.1432 29.8027C8.80834 29.0978 7.66295 29.1419 5.50433 30.1111Z" fill="black"/>
<path d="M61.981 29.6705C61.8488 29.7586 61.7607 34.0759 61.7607 39.2742V48.6576H63.3026H64.8445V44.6928C64.8445 42.4901 65.0207 40.728 65.1969 40.728C65.3731 40.728 67.2674 42.6223 69.4261 44.9131C72.5098 48.2611 73.523 49.0981 74.4922 49.0981C75.153 49.0981 75.8579 48.966 75.99 48.7898C76.1663 48.6576 74.8006 47.0276 72.9503 45.1774L69.6463 41.8734L71.5847 40.8601C74.2279 39.5385 75.7257 36.631 75.0209 34.4283C74.1838 31.9613 72.4217 30.6397 68.9855 29.9348C66.1661 29.3621 62.4215 29.1859 61.981 29.6705ZM70.8798 32.9745C71.6287 33.8556 71.8931 34.6926 71.8931 36.1464C71.8931 38.7896 70.4833 40.2874 67.9723 40.2874C64.8885 40.2874 64.8445 40.2434 64.8445 35.5737V31.3886L67.3555 31.5648C69.382 31.741 70.0428 32.0054 70.8798 32.9745Z" fill="black"/>
<path d="M80.8359 29.5824C80.3953 29.7146 80.2632 32.0935 80.2632 39.1861V48.5695L84.8007 48.8779C91.0123 49.2744 92.3339 49.1422 92.5101 47.8647C92.6422 46.8955 92.5982 46.8955 88.0166 46.8955H83.3469V43.1509V39.4064H87.7523C91.3647 39.4064 92.1576 39.2742 92.1576 38.7456C92.1576 38.2169 91.3647 38.0848 87.7523 38.0848H83.3469V34.7807V31.4767H87.4439C91.8052 31.4767 92.7744 31.1684 92.3339 30.023C92.1136 29.3622 91.3206 29.2741 86.695 29.3181C83.7875 29.3181 81.1002 29.4503 80.8359 29.5824Z" fill="black"/>
<path d="M126.475 32.0054C124.052 36.7631 119.03 47.9528 119.03 48.5254C119.03 48.8338 119.383 49.0981 119.823 49.0981C121.718 49.0981 122.555 48.4814 123.48 46.499C124.008 45.3976 124.625 44.3404 124.933 44.1641C125.638 43.6796 131.586 43.7236 132.863 44.2523C133.568 44.5166 134.361 45.4417 135.022 46.7633C135.903 48.6576 136.167 48.8779 137.665 49.01C138.546 49.0981 139.295 48.966 139.295 48.7457C139.295 48.2611 137.092 43.4593 133.304 35.5296C131.63 32.1375 130.22 29.7146 129.867 29.7146C129.515 29.7146 128.942 29.5824 128.546 29.4503C128.061 29.274 127.489 29.9789 126.475 32.0054ZM131.189 38.7456L132.246 41.2126L129.295 41.0804C125.859 40.9482 125.815 40.8601 127.665 36.8072C128.722 34.4283 128.766 34.4283 129.427 35.3534C129.779 35.8821 130.572 37.424 131.189 38.7456Z" fill="black"/>
<path d="M142.599 35.0891C142.467 38.305 142.379 42.7104 142.467 44.9131L142.599 48.8779L144.317 48.7898C145.286 48.7017 146.123 48.6136 146.211 48.5254C146.299 48.4373 146.343 44.6047 146.343 40.0672L146.387 31.8291L149.207 32.0054C152.863 32.2256 153.832 33.0186 153.832 35.8821C153.832 39.098 152.819 40.0672 149.471 40.0672C147.973 40.0672 146.784 40.1553 146.784 40.2434C146.784 40.2874 148.502 42.3139 150.661 44.7368C154.361 48.9219 154.537 49.0541 156.388 49.0981C157.401 49.0981 158.238 48.9219 158.238 48.7017C158.238 48.4814 157.048 47.1157 155.595 45.6179L152.951 42.9747L155.066 40.8601C157.401 38.5253 158.018 36.8513 157.313 34.4283C156.299 30.6838 153.48 29.274 146.96 29.274H142.907L142.599 35.0891Z" fill="black"/>
<path d="M19.0288 39.1861V48.7017L20.4826 48.5695L21.8923 48.4373V43.8558V39.2301L26.5179 39.3183C29.073 39.3623 31.2757 39.4064 31.496 39.4064C31.6722 39.4064 31.8043 41.5209 31.8043 44.076V48.7017L33.2581 48.5695L34.6678 48.4373V39.1861V29.9348L33.2581 29.8027L31.8043 29.6705V33.8556V38.0848H27.0025H22.2007L21.9363 35.3094C21.8042 33.8116 21.7601 31.9613 21.8042 31.2564C21.8923 30.067 21.7601 29.9348 20.4826 29.8027L19.0288 29.6705V39.1861Z" fill="black"/>
<path d="M47.0906 31.1242C46.0774 33.1947 41.1434 43.5913 39.9099 46.3226C38.9407 48.4813 38.9407 48.6575 39.6896 48.6575C40.2183 48.6575 40.9231 47.8205 41.7602 46.1024L43.0818 43.5913L47.7074 43.4591L52.3771 43.327L53.5665 46.0143C54.6678 48.4813 54.8441 48.6575 56.2538 48.6575C57.7516 48.6575 57.7516 48.6575 57.1789 47.424C56.8705 46.7632 55.9454 44.7808 55.1524 42.9746C50.3506 32.5339 49.029 29.9347 48.4563 29.8025C48.1039 29.7585 47.4871 30.3312 47.0906 31.1242ZM49.866 37.6441C50.8352 39.9349 51.6282 41.8292 51.6282 41.9173C51.6282 42.0054 49.9541 42.0494 47.8836 42.0494C45.8131 42.0494 44.139 41.9613 44.139 41.8732C44.139 40.9481 47.6193 33.0625 47.9277 33.3268C48.0158 33.459 48.8968 35.3973 49.866 37.6441Z" fill="black"/>
</svg>
